# xmcd
#
# Track frame offsets: 
#        150
#        22944
#        47632
#        68182
#        87412
#        105923
#        127737
#        149839
#        174613
#        200482
#
# Disc length: 2894 seconds
#
# Revision: 0
# Processed by: cddbd v1.5.2PL0 Copyright (c) Steve Scherf et al.
# Submitted via: ExactAudioCopy v0.99pb3
#
DISCID=850b4c0a
DTITLE=Various Artist - Country Essentials
DYEAR=2007
DGENRE=Country
TTITLE0=BoonDocks - Little BigTown (86.3)
TTITLE1=Every Mile a Memory -Dierks Bentley (89)
TTITLE2=Our Song - Taylor Swift (89)
TTITLE3=These Are My People - Rodney Atkins (90)
TTITLE4=Your Man - Josh Turner (101)
TTITLE5=Save A Horse Ride A Cowboy - Big and Rich (102)
TTITLE6=Something More - Sugarland (102)
TTITLE7=Life Is A Highway - Rascall Flatts (103)
TTITLE8=Better Life - Keith Urban (105)
TTITLE9=I Like It, I Love It - Tim Mcgraw (124)
EXTD=
EXTT0=
EXTT1=
EXTT2=
EXTT3=
EXTT4=
EXTT5=
EXTT6=
EXTT7=
EXTT8=
EXTT9=
PLAYORDER=
